<?xml version="1.0" encoding="UTF-8" standalone="no"?>
<!DOCTYPE svg PUBLIC "-//W3C//DTD SVG 1.1//EN" "http://www.w3.org/Graphics/SVG/1.1/DTD/svg11.dtd">
<!-- Generated by graphviz version 2.40.1 (20161225.0304)
 -->
<!-- Title: processtree Pages: 1 -->
<svg width="2358pt" height="594pt" viewBox="0.00 0.00 2358.28 594.20" xmlns="http://www.w3.org/2000/svg" xmlns:xlink="http://www.w3.org/1999/xlink">
<g id="graph0" class="graph" transform="scale(1 1) rotate(0) translate(4 590.2)">
<title>processtree</title>
<polygon fill="#ffffff" stroke="transparent" points="-4,4 -4,-590.2 2354.2764,-590.2 2354.2764,4 -4,4"/>
<!-- vad_fffffadfcc05a8d8 -->
<g id="node1" class="node">
<title>vad_fffffadfcc05a8d8</title>
<ellipse fill="none" stroke="#000000" cx="1262.3212" cy="-568.2" rx="95.4307" ry="18"/>
<text text-anchor="middle" x="1262.3212" y="-564" font-family="Times,serif" font-size="14.00" fill="#000000">vad_fffffadfcc05a8d8</text>
</g>
<!-- vad_fffffadfcc465090 -->
<g id="node2" class="node">
<title>vad_fffffadfcc465090</title>
<polygon fill="#c0c0c0" stroke="#0000ff" points="1199.1248,-472.1 1199.1248,-513.7 1325.5176,-513.7 1325.5176,-472.1 1199.1248,-472.1"/>
<text text-anchor="middle" x="1262.3212" y="-497.1" font-family="Times,serif" font-size="14.00" fill="#000000">Vad </text>
<text text-anchor="middle" x="1262.3212" y="-480.3" font-family="Times,serif" font-size="14.00" fill="#000000">78ec0000 - 78ff8fff</text>
</g>
<!-- vad_fffffadfcc05a8d8&#45;&gt;vad_fffffadfcc465090 -->
<g id="edge1" class="edge">
<title>vad_fffffadfcc05a8d8-&gt;vad_fffffadfcc465090</title>
<path fill="none" stroke="#000000" d="M1262.3212,-549.972C1262.3212,-542.1509 1262.3212,-532.7901 1262.3212,-523.9336"/>
<polygon fill="#000000" stroke="#000000" points="1265.8213,-523.8908 1262.3212,-513.8909 1258.8213,-523.8909 1265.8213,-523.8908"/>
</g>
<!-- vad_fffffadfcbfabf50 -->
<g id="node3" class="node">
<title>vad_fffffadfcbfabf50</title>
<polygon fill="#ffffff" stroke="#0000ff" points="975.5624,-393.5 975.5624,-435.1 1105.08,-435.1 1105.08,-393.5 975.5624,-393.5"/>
<text text-anchor="middle" x="1040.3212" y="-418.5" font-family="Times,serif" font-size="14.00" fill="#000000">VadS</text>
<text text-anchor="middle" x="1040.3212" y="-401.7" font-family="Times,serif" font-size="14.00" fill="#000000">002b0000 - 003affff</text>
</g>
<!-- vad_fffffadfcc465090&#45;&gt;vad_fffffadfcbfabf50 -->
<g id="edge2" class="edge">
<title>vad_fffffadfcc465090-&gt;vad_fffffadfcbfabf50</title>
<path fill="none" stroke="#000000" d="M1203.4121,-472.043C1174.3187,-461.7424 1139.0508,-449.2556 1108.7642,-438.5325"/>
<polygon fill="#000000" stroke="#000000" points="1109.7148,-435.1562 1099.12,-435.118 1107.3785,-441.7549 1109.7148,-435.1562"/>
</g>
<!-- vad_fffffadfcc46a810 -->
<g id="node30" class="node">
<title>vad_fffffadfcc46a810</title>
<polygon fill="#c0c0c0" stroke="#0000ff" points="1408.6788,-393.5 1408.6788,-435.1 1573.9636,-435.1 1573.9636,-393.5 1408.6788,-393.5"/>
<text text-anchor="middle" x="1491.3212" y="-418.5" font-family="Times,serif" font-size="14.00" fill="#000000">Vad </text>
<text text-anchor="middle" x="1491.3212" y="-401.7" font-family="Times,serif" font-size="14.00" fill="#000000">7ff7d360000 - 7ff7d3d6fff</text>
</g>
<!-- vad_fffffadfcc465090&#45;&gt;vad_fffffadfcc46a810 -->
<g id="edge29" class="edge">
<title>vad_fffffadfcc465090-&gt;vad_fffffadfcc46a810</title>
<path fill="none" stroke="#000000" d="M1323.0878,-472.043C1353.2284,-461.6978 1389.7936,-449.1475 1421.1255,-438.3934"/>
<polygon fill="#000000" stroke="#000000" points="1422.3462,-441.6749 1430.6683,-435.118 1420.0737,-435.054 1422.3462,-441.6749"/>
</g>
<!-- vad_fffffadfce23e5d0 -->
<g id="node4" class="node">
<title>vad_fffffadfce23e5d0</title>
<polygon fill="#ff0000" stroke="#0000ff" points="525.5624,-314.9 525.5624,-356.5 655.08,-356.5 655.08,-314.9 525.5624,-314.9"/>
<text text-anchor="middle" x="590.3212" y="-339.9" font-family="Times,serif" font-size="14.00" fill="#000000">VadS</text>
<text text-anchor="middle" x="590.3212" y="-323.1" font-family="Times,serif" font-size="14.00" fill="#000000">000d0000 - 001cffff</text>
</g>
<!-- vad_fffffadfcbfabf50&#45;&gt;vad_fffffadfce23e5d0 -->
<g id="edge3" class="edge">
<title>vad_fffffadfcbfabf50-&gt;vad_fffffadfce23e5d0</title>
<path fill="none" stroke="#000000" d="M975.3679,-402.9548C893.1896,-388.601 751.9538,-363.9318 665.2857,-348.7938"/>
<polygon fill="#000000" stroke="#000000" points="665.7079,-345.3146 655.2548,-347.0417 664.5034,-352.2102 665.7079,-345.3146"/>
</g>
<!-- vad_fffffadfcdcc0750 -->
<g id="node16" class="node">
<title>vad_fffffadfcdcc0750</title>
<polygon fill="#ffffff" stroke="#0000ff" points="977.1248,-314.9 977.1248,-356.5 1103.5176,-356.5 1103.5176,-314.9 977.1248,-314.9"/>
<text text-anchor="middle" x="1040.3212" y="-339.9" font-family="Times,serif" font-size="14.00" fill="#000000">Vadl</text>
<text text-anchor="middle" x="1040.3212" y="-323.1" font-family="Times,serif" font-size="14.00" fill="#000000">01af0000 - 01af0fff</text>
</g>
<!-- vad_fffffadfcbfabf50&#45;&gt;vad_fffffadfcdcc0750 -->
<g id="edge15" class="edge">
<title>vad_fffffadfcbfabf50-&gt;vad_fffffadfcdcc0750</title>
<path fill="none" stroke="#000000" d="M1040.3212,-393.2366C1040.3212,-385.0657 1040.3212,-375.5433 1040.3212,-366.6245"/>
<polygon fill="#000000" stroke="#000000" points="1043.8213,-366.5489 1040.3212,-356.549 1036.8213,-366.549 1043.8213,-366.5489"/>
</g>
<!-- vad_fffffadfcbfa6490 -->
<g id="node5" class="node">
<title>vad_fffffadfcbfa6490</title>
<polygon fill="#ffffff" stroke="#0000ff" points="152.5624,-236.3 152.5624,-277.9 282.08,-277.9 282.08,-236.3 152.5624,-236.3"/>
<text text-anchor="middle" x="217.3212" y="-261.3" font-family="Times,serif" font-size="14.00" fill="#000000">VadS</text>
<text text-anchor="middle" x="217.3212" y="-244.5" font-family="Times,serif" font-size="14.00" fill="#000000">00030000 - 000affff</text>
</g>
<!-- vad_fffffadfce23e5d0&#45;&gt;vad_fffffadfcbfa6490 -->
<g id="edge4" class="edge">
<title>vad_fffffadfce23e5d0-&gt;vad_fffffadfcbfa6490</title>
<path fill="none" stroke="#000000" d="M525.3496,-322.0089C460.296,-308.3006 360.3009,-287.2292 292.0106,-272.8388"/>
<polygon fill="#000000" stroke="#000000" points="292.6798,-269.4031 282.173,-270.7658 291.2364,-276.2526 292.6798,-269.4031"/>
</g>
<!-- vad_fffffadfcbb8f9c0 -->
<g id="node10" class="node">
<title>vad_fffffadfcbb8f9c0</title>
<polygon fill="#ffff00" stroke="#0000ff" points="524,-236.3 524,-277.9 656.6424,-277.9 656.6424,-236.3 524,-236.3"/>
<text text-anchor="middle" x="590.3212" y="-261.3" font-family="Times,serif" font-size="14.00" fill="#000000">Vad </text>
<text text-anchor="middle" x="590.3212" y="-244.5" font-family="Times,serif" font-size="14.00" fill="#000000">00240000 - 00280fff</text>
</g>
<!-- vad_fffffadfce23e5d0&#45;&gt;vad_fffffadfcbb8f9c0 -->
<g id="edge9" class="edge">
<title>vad_fffffadfce23e5d0-&gt;vad_fffffadfcbb8f9c0</title>
<path fill="none" stroke="#000000" d="M590.3212,-314.6366C590.3212,-306.4657 590.3212,-296.9433 590.3212,-288.0245"/>
<polygon fill="#000000" stroke="#000000" points="593.8213,-287.9489 590.3212,-277.949 586.8213,-287.949 593.8213,-287.9489"/>
</g>
<!-- vad_fffffadfcceeb6b0 -->
<g id="node6" class="node">
<title>vad_fffffadfcceeb6b0</title>
<polygon fill="#ffffff" stroke="#0000ff" points="1,-157.7 1,-199.3 133.6424,-199.3 133.6424,-157.7 1,-157.7"/>
<text text-anchor="middle" x="67.3212" y="-182.7" font-family="Times,serif" font-size="14.00" fill="#000000">VadS</text>
<text text-anchor="middle" x="67.3212" y="-165.9" font-family="Times,serif" font-size="14.00" fill="#000000">00020000 - 00020fff</text>
</g>
<!-- vad_fffffadfcbfa6490&#45;&gt;vad_fffffadfcceeb6b0 -->
<g id="edge5" class="edge">
<title>vad_fffffadfcbfa6490-&gt;vad_fffffadfcceeb6b0</title>
<path fill="none" stroke="#000000" d="M177.5178,-236.243C158.626,-226.3437 135.8809,-214.4253 115.9732,-203.9937"/>
<polygon fill="#000000" stroke="#000000" points="117.5323,-200.8592 107.0502,-199.318 114.2833,-207.0596 117.5323,-200.8592"/>
</g>
<!-- vad_fffffadfcced16d0 -->
<g id="node8" class="node">
<title>vad_fffffadfcced16d0</title>
<polygon fill="#ffffff" stroke="#0000ff" points="151.7854,-157.7 151.7854,-199.3 282.857,-199.3 282.857,-157.7 151.7854,-157.7"/>
<text text-anchor="middle" x="217.3212" y="-182.7" font-family="Times,serif" font-size="14.00" fill="#000000">Vad </text>
<text text-anchor="middle" x="217.3212" y="-165.9" font-family="Times,serif" font-size="14.00" fill="#000000">000c0000 - 000c1fff</text>
</g>
<!-- vad_fffffadfcbfa6490&#45;&gt;vad_fffffadfcced16d0 -->
<g id="edge7" class="edge">
<title>vad_fffffadfcbfa6490-&gt;vad_fffffadfcced16d0</title>
<path fill="none" stroke="#000000" d="M217.3212,-236.0366C217.3212,-227.8657 217.3212,-218.3433 217.3212,-209.4245"/>
<polygon fill="#000000" stroke="#000000" points="220.8213,-209.3489 217.3212,-199.349 213.8213,-209.349 220.8213,-209.3489"/>
</g>
<!-- vad_fffffadfcdcbb850 -->
<g id="node7" class="node">
<title>vad_fffffadfcdcbb850</title>
<polygon fill="#ffffff" stroke="#0000ff" points="0,-79.1 0,-120.7 132.6424,-120.7 132.6424,-79.1 0,-79.1"/>
<text text-anchor="middle" x="66.3212" y="-104.1" font-family="Times,serif" font-size="14.00" fill="#000000">VadS</text>
<text text-anchor="middle" x="66.3212" y="-87.3" font-family="Times,serif" font-size="14.00" fill="#000000">00010000 - 00010fff</text>
</g>
<!-- vad_fffffadfcceeb6b0&#45;&gt;vad_fffffadfcdcbb850 -->
<g id="edge6" class="edge">
<title>vad_fffffadfcceeb6b0-&gt;vad_fffffadfcdcbb850</title>
<path fill="none" stroke="#000000" d="M67.0532,-157.4366C66.9493,-149.2657 66.8281,-139.7433 66.7146,-130.8245"/>
<polygon fill="#000000" stroke="#000000" points="70.2135,-130.7036 66.5865,-120.749 63.2141,-130.7927 70.2135,-130.7036"/>
</g>
<!-- vad_fffffadfcc1c1b40 -->
<g id="node9" class="node">
<title>vad_fffffadfcc1c1b40</title>
<polygon fill="#00ff00" stroke="#0000ff" points="151,-79.1 151,-120.7 283.6424,-120.7 283.6424,-79.1 151,-79.1"/>
<text text-anchor="middle" x="217.3212" y="-104.1" font-family="Times,serif" font-size="14.00" fill="#000000">Vad </text>
<text text-anchor="middle" x="217.3212" y="-87.3" font-family="Times,serif" font-size="14.00" fill="#000000">000b0000 - 000b4fff</text>
</g>
<!-- vad_fffffadfcced16d0&#45;&gt;vad_fffffadfcc1c1b40 -->
<g id="edge8" class="edge">
<title>vad_fffffadfcced16d0-&gt;vad_fffffadfcc1c1b40</title>
<path fill="none" stroke="#000000" d="M217.3212,-157.4366C217.3212,-149.2657 217.3212,-139.7433 217.3212,-130.8245"/>
<polygon fill="#000000" stroke="#000000" points="220.8213,-130.7489 217.3212,-120.749 213.8213,-130.749 220.8213,-130.7489"/>
</g>
<!-- vad_fffffadfcbfa3100 -->
<g id="node11" class="node">
<title>vad_fffffadfcbfa3100</title>
<polygon fill="#ffff00" stroke="#0000ff" points="450.5624,-157.7 450.5624,-199.3 580.08,-199.3 580.08,-157.7 450.5624,-157.7"/>
<text text-anchor="middle" x="515.3212" y="-182.7" font-family="Times,serif" font-size="14.00" fill="#000000">Vad </text>
<text text-anchor="middle" x="515.3212" y="-165.9" font-family="Times,serif" font-size="14.00" fill="#000000">001e0000 - 001f5fff</text>
</g>
<!-- vad_fffffadfcbb8f9c0&#45;&gt;vad_fffffadfcbfa3100 -->
<g id="edge10" class="edge">
<title>vad_fffffadfcbb8f9c0-&gt;vad_fffffadfcbfa3100</title>
<path fill="none" stroke="#000000" d="M570.2226,-236.0366C561.6631,-227.0663 551.5495,-216.4673 542.35,-206.8262"/>
<polygon fill="#000000" stroke="#000000" points="544.6509,-204.1676 535.2152,-199.349 539.5865,-209 544.6509,-204.1676"/>
</g>
<!-- vad_fffffadfcdca94c0 -->
<g id="node14" class="node">
<title>vad_fffffadfcdca94c0</title>
<polygon fill="#ff0000" stroke="#0000ff" points="599.9551,-157.7 599.9551,-199.3 728.6873,-199.3 728.6873,-157.7 599.9551,-157.7"/>
<text text-anchor="middle" x="664.3212" y="-182.7" font-family="Times,serif" font-size="14.00" fill="#000000">VadS</text>
<text text-anchor="middle" x="664.3212" y="-165.9" font-family="Times,serif" font-size="14.00" fill="#000000">002a0000 - 002affff</text>
</g>
<!-- vad_fffffadfcbb8f9c0&#45;&gt;vad_fffffadfcdca94c0 -->
<g id="edge13" class="edge">
<title>vad_fffffadfcbb8f9c0-&gt;vad_fffffadfcdca94c0</title>
<path fill="none" stroke="#000000" d="M610.1518,-236.0366C618.5972,-227.0663 628.5759,-216.4673 637.6528,-206.8262"/>
<polygon fill="#000000" stroke="#000000" points="640.3859,-209.0291 644.6924,-199.349 635.2893,-204.2307 640.3859,-209.0291"/>
</g>
<!-- vad_fffffadfcbf9b3a0 -->
<g id="node12" class="node">
<title>vad_fffffadfcbf9b3a0</title>
<polygon fill="#ff0000" stroke="#0000ff" points="301.1697,-79.1 301.1697,-120.7 431.4727,-120.7 431.4727,-79.1 301.1697,-79.1"/>
<text text-anchor="middle" x="366.3212" y="-104.1" font-family="Times,serif" font-size="14.00" fill="#000000">Vad </text>
<text text-anchor="middle" x="366.3212" y="-87.3" font-family="Times,serif" font-size="14.00" fill="#000000">001d0000 - 001dffff</text>
</g>
<!-- vad_fffffadfcbfa3100&#45;&gt;vad_fffffadfcbf9b3a0 -->
<g id="edge11" class="edge">
<title>vad_fffffadfcbfa3100-&gt;vad_fffffadfcbf9b3a0</title>
<path fill="none" stroke="#000000" d="M475.7831,-157.643C457.0173,-147.7437 434.4239,-135.8253 414.6489,-125.3937"/>
<polygon fill="#000000" stroke="#000000" points="416.2631,-122.2881 405.7853,-120.718 412.9971,-128.4795 416.2631,-122.2881"/>
</g>
<!-- vad_fffffadfcbbaa890 -->
<g id="node13" class="node">
<title>vad_fffffadfcbbaa890</title>
<polygon fill="#ffff00" stroke="#0000ff" points="449,-79.1 449,-120.7 581.6424,-120.7 581.6424,-79.1 449,-79.1"/>
<text text-anchor="middle" x="515.3212" y="-104.1" font-family="Times,serif" font-size="14.00" fill="#000000">Vad </text>
<text text-anchor="middle" x="515.3212" y="-87.3" font-family="Times,serif" font-size="14.00" fill="#000000">00200000 - 00233fff</text>
</g>
<!-- vad_fffffadfcbfa3100&#45;&gt;vad_fffffadfcbbaa890 -->
<g id="edge12" class="edge">
<title>vad_fffffadfcbfa3100-&gt;vad_fffffadfcbbaa890</title>
<path fill="none" stroke="#000000" d="M515.3212,-157.4366C515.3212,-149.2657 515.3212,-139.7433 515.3212,-130.8245"/>
<polygon fill="#000000" stroke="#000000" points="518.8213,-130.7489 515.3212,-120.749 511.8213,-130.749 518.8213,-130.7489"/>
</g>
<!-- vad_fffffadfcdca3240 -->
<g id="node15" class="node">
<title>vad_fffffadfcdca3240</title>
<polygon fill="#ffff00" stroke="#0000ff" points="600,-79.1 600,-120.7 732.6424,-120.7 732.6424,-79.1 600,-79.1"/>
<text text-anchor="middle" x="666.3212" y="-104.1" font-family="Times,serif" font-size="14.00" fill="#000000">Vad </text>
<text text-anchor="middle" x="666.3212" y="-87.3" font-family="Times,serif" font-size="14.00" fill="#000000">00290000 - 00295fff</text>
</g>
<!-- vad_fffffadfcdca94c0&#45;&gt;vad_fffffadfcdca3240 -->
<g id="edge14" class="edge">
<title>vad_fffffadfcdca94c0-&gt;vad_fffffadfcdca3240</title>
<path fill="none" stroke="#000000" d="M664.8572,-157.4366C665.0651,-149.2657 665.3074,-139.7433 665.5343,-130.8245"/>
<polygon fill="#000000" stroke="#000000" points="669.0351,-130.8348 665.7907,-120.749 662.0374,-130.6567 669.0351,-130.8348"/>
</g>
<!-- vad_fffffadfcc1c6130 -->
<g id="node17" class="node">
<title>vad_fffffadfcc1c6130</title>
<polygon fill="#ffffff" stroke="#0000ff" points="900,-236.3 900,-277.9 1032.6424,-277.9 1032.6424,-236.3 900,-236.3"/>
<text text-anchor="middle" x="966.3212" y="-261.3" font-family="Times,serif" font-size="14.00" fill="#000000">Vad </text>
<text text-anchor="middle" x="966.3212" y="-244.5" font-family="Times,serif" font-size="14.00" fill="#000000">00550000 - 006d2fff</text>
</g>
<!-- vad_fffffadfcdcc0750&#45;&gt;vad_fffffadfcc1c6130 -->
<g id="edge16" class="edge">
<title>vad_fffffadfcdcc0750-&gt;vad_fffffadfcc1c6130</title>
<path fill="none" stroke="#000000" d="M1020.4906,-314.6366C1012.0452,-305.6663 1002.0665,-295.0673 992.9896,-285.4262"/>
<polygon fill="#000000" stroke="#000000" points="995.3531,-282.8307 985.95,-277.949 990.2565,-287.6291 995.3531,-282.8307"/>
</g>
<!-- vad_fffffadfcc03a9b0 -->
<g id="node22" class="node">
<title>vad_fffffadfcc03a9b0</title>
<polygon fill="#ff0000" stroke="#0000ff" points="1050.1697,-236.3 1050.1697,-277.9 1180.4727,-277.9 1180.4727,-236.3 1050.1697,-236.3"/>
<text text-anchor="middle" x="1115.3212" y="-261.3" font-family="Times,serif" font-size="14.00" fill="#000000">VadS</text>
<text text-anchor="middle" x="1115.3212" y="-244.5" font-family="Times,serif" font-size="14.00" fill="#000000">01b20000 - 01b2ffff</text>
</g>
<!-- vad_fffffadfcdcc0750&#45;&gt;vad_fffffadfcc03a9b0 -->
<g id="edge21" class="edge">
<title>vad_fffffadfcdcc0750-&gt;vad_fffffadfcc03a9b0</title>
<path fill="none" stroke="#000000" d="M1060.4198,-314.6366C1068.9793,-305.6663 1079.0929,-295.0673 1088.2924,-285.4262"/>
<polygon fill="#000000" stroke="#000000" points="1091.0559,-287.6 1095.4272,-277.949 1085.9915,-282.7676 1091.0559,-287.6"/>
</g>
<!-- vad_fffffadfcc1cd810 -->
<g id="node18" class="node">
<title>vad_fffffadfcc1cd810</title>
<polygon fill="#ffffff" stroke="#0000ff" points="751.3927,-157.7 751.3927,-199.3 883.2497,-199.3 883.2497,-157.7 751.3927,-157.7"/>
<text text-anchor="middle" x="817.3212" y="-182.7" font-family="Times,serif" font-size="14.00" fill="#000000">Vad </text>
<text text-anchor="middle" x="817.3212" y="-165.9" font-family="Times,serif" font-size="14.00" fill="#000000">003c0000 - 00547fff</text>
</g>
<!-- vad_fffffadfcc1c6130&#45;&gt;vad_fffffadfcc1cd810 -->
<g id="edge17" class="edge">
<title>vad_fffffadfcc1c6130-&gt;vad_fffffadfcc1cd810</title>
<path fill="none" stroke="#000000" d="M926.7831,-236.243C908.0173,-226.3437 885.4239,-214.4253 865.6489,-203.9937"/>
<polygon fill="#000000" stroke="#000000" points="867.2631,-200.8881 856.7853,-199.318 863.9971,-207.0795 867.2631,-200.8881"/>
</g>
<!-- vad_fffffadfccf14ae0 -->
<g id="node20" class="node">
<title>vad_fffffadfccf14ae0</title>
<polygon fill="#ffffff" stroke="#0000ff" points="901.5708,-157.7 901.5708,-199.3 1031.0716,-199.3 1031.0716,-157.7 901.5708,-157.7"/>
<text text-anchor="middle" x="966.3212" y="-182.7" font-family="Times,serif" font-size="14.00" fill="#000000">Vadl</text>
<text text-anchor="middle" x="966.3212" y="-165.9" font-family="Times,serif" font-size="14.00" fill="#000000">01ae0000 - 01ae0fff</text>
</g>
<!-- vad_fffffadfcc1c6130&#45;&gt;vad_fffffadfccf14ae0 -->
<g id="edge19" class="edge">
<title>vad_fffffadfcc1c6130-&gt;vad_fffffadfccf14ae0</title>
<path fill="none" stroke="#000000" d="M966.3212,-236.0366C966.3212,-227.8657 966.3212,-218.3433 966.3212,-209.4245"/>
<polygon fill="#000000" stroke="#000000" points="969.8213,-209.3489 966.3212,-199.349 962.8213,-209.349 969.8213,-209.3489"/>
</g>
<!-- vad_fffffadfcced9df0 -->
<g id="node19" class="node">
<title>vad_fffffadfcced9df0</title>
<polygon fill="#ffff00" stroke="#0000ff" points="751,-79.1 751,-120.7 883.6424,-120.7 883.6424,-79.1 751,-79.1"/>
<text text-anchor="middle" x="817.3212" y="-104.1" font-family="Times,serif" font-size="14.00" fill="#000000">Vad </text>
<text text-anchor="middle" x="817.3212" y="-87.3" font-family="Times,serif" font-size="14.00" fill="#000000">003b0000 - 003b2fff</text>
</g>
<!-- vad_fffffadfcc1cd810&#45;&gt;vad_fffffadfcced9df0 -->
<g id="edge18" class="edge">
<title>vad_fffffadfcc1cd810-&gt;vad_fffffadfcced9df0</title>
<path fill="none" stroke="#000000" d="M817.3212,-157.4366C817.3212,-149.2657 817.3212,-139.7433 817.3212,-130.8245"/>
<polygon fill="#000000" stroke="#000000" points="820.8213,-130.7489 817.3212,-120.749 813.8213,-130.749 820.8213,-130.7489"/>
</g>
<!-- vad_fffffadfcc1c69e0 -->
<g id="node21" class="node">
<title>vad_fffffadfcc1c69e0</title>
<polygon fill="#ffffff" stroke="#0000ff" points="901.9551,-79.1 901.9551,-120.7 1030.6873,-120.7 1030.6873,-79.1 901.9551,-79.1"/>
<text text-anchor="middle" x="966.3212" y="-104.1" font-family="Times,serif" font-size="14.00" fill="#000000">Vad </text>
<text text-anchor="middle" x="966.3212" y="-87.3" font-family="Times,serif" font-size="14.00" fill="#000000">006e0000 - 01adffff</text>
</g>
<!-- vad_fffffadfccf14ae0&#45;&gt;vad_fffffadfcc1c69e0 -->
<g id="edge20" class="edge">
<title>vad_fffffadfccf14ae0-&gt;vad_fffffadfcc1c69e0</title>
<path fill="none" stroke="#000000" d="M966.3212,-157.4366C966.3212,-149.2657 966.3212,-139.7433 966.3212,-130.8245"/>
<polygon fill="#000000" stroke="#000000" points="969.8213,-130.7489 966.3212,-120.749 962.8213,-130.749 969.8213,-130.7489"/>
</g>
<!-- vad_fffffadfce2160f0 -->
<g id="node23" class="node">
<title>vad_fffffadfce2160f0</title>
<polygon fill="#ffffff" stroke="#0000ff" points="1049,-157.7 1049,-199.3 1181.6424,-199.3 1181.6424,-157.7 1049,-157.7"/>
<text text-anchor="middle" x="1115.3212" y="-182.7" font-family="Times,serif" font-size="14.00" fill="#000000">Vad </text>
<text text-anchor="middle" x="1115.3212" y="-165.9" font-family="Times,serif" font-size="14.00" fill="#000000">01b10000 - 01b11fff</text>
</g>
<!-- vad_fffffadfcc03a9b0&#45;&gt;vad_fffffadfce2160f0 -->
<g id="edge22" class="edge">
<title>vad_fffffadfcc03a9b0-&gt;vad_fffffadfce2160f0</title>
<path fill="none" stroke="#000000" d="M1115.3212,-236.0366C1115.3212,-227.8657 1115.3212,-218.3433 1115.3212,-209.4245"/>
<polygon fill="#000000" stroke="#000000" points="1118.8213,-209.3489 1115.3212,-199.349 1111.8213,-209.349 1118.8213,-209.3489"/>
</g>
<!-- vad_fffffadfccc24a50 -->
<g id="node25" class="node">
<title>vad_fffffadfccc24a50</title>
<polygon fill="#c0c0c0" stroke="#0000ff" points="1199.3927,-157.7 1199.3927,-199.3 1331.2497,-199.3 1331.2497,-157.7 1199.3927,-157.7"/>
<text text-anchor="middle" x="1265.3212" y="-182.7" font-family="Times,serif" font-size="14.00" fill="#000000">Vadl</text>
<text text-anchor="middle" x="1265.3212" y="-165.9" font-family="Times,serif" font-size="14.00" fill="#000000">78c30000 - 78d3bfff</text>
</g>
<!-- vad_fffffadfcc03a9b0&#45;&gt;vad_fffffadfccc24a50 -->
<g id="edge24" class="edge">
<title>vad_fffffadfcc03a9b0-&gt;vad_fffffadfccc24a50</title>
<path fill="none" stroke="#000000" d="M1155.1246,-236.243C1174.0164,-226.3437 1196.7615,-214.4253 1216.6692,-203.9937"/>
<polygon fill="#000000" stroke="#000000" points="1218.3591,-207.0596 1225.5922,-199.318 1215.1101,-200.8592 1218.3591,-207.0596"/>
</g>
<!-- vad_fffffadfcc03fab0 -->
<g id="node24" class="node">
<title>vad_fffffadfcc03fab0</title>
<polygon fill="#ffffff" stroke="#0000ff" points="1049,-79.1 1049,-120.7 1181.6424,-120.7 1181.6424,-79.1 1049,-79.1"/>
<text text-anchor="middle" x="1115.3212" y="-104.1" font-family="Times,serif" font-size="14.00" fill="#000000">Vad </text>
<text text-anchor="middle" x="1115.3212" y="-87.3" font-family="Times,serif" font-size="14.00" fill="#000000">01b00000 - 01b01fff</text>
</g>
<!-- vad_fffffadfce2160f0&#45;&gt;vad_fffffadfcc03fab0 -->
<g id="edge23" class="edge">
<title>vad_fffffadfce2160f0-&gt;vad_fffffadfcc03fab0</title>
<path fill="none" stroke="#000000" d="M1115.3212,-157.4366C1115.3212,-149.2657 1115.3212,-139.7433 1115.3212,-130.8245"/>
<polygon fill="#000000" stroke="#000000" points="1118.8213,-130.7489 1115.3212,-120.749 1111.8213,-130.749 1118.8213,-130.7489"/>
</g>
<!-- vad_fffffadfcd284bb0 -->
<g id="node26" class="node">
<title>vad_fffffadfcd284bb0</title>
<polygon fill="#ffffff" stroke="#0000ff" points="1199.7854,-79.1 1199.7854,-120.7 1330.857,-120.7 1330.857,-79.1 1199.7854,-79.1"/>
<text text-anchor="middle" x="1265.3212" y="-104.1" font-family="Times,serif" font-size="14.00" fill="#000000">Vad </text>
<text text-anchor="middle" x="1265.3212" y="-87.3" font-family="Times,serif" font-size="14.00" fill="#000000">01c30000 - 01c84fff</text>
</g>
<!-- vad_fffffadfccc24a50&#45;&gt;vad_fffffadfcd284bb0 -->
<g id="edge25" class="edge">
<title>vad_fffffadfccc24a50-&gt;vad_fffffadfcd284bb0</title>
<path fill="none" stroke="#000000" d="M1265.3212,-157.4366C1265.3212,-149.2657 1265.3212,-139.7433 1265.3212,-130.8245"/>
<polygon fill="#000000" stroke="#000000" points="1268.8213,-130.7489 1265.3212,-120.749 1261.8213,-130.749 1268.8213,-130.7489"/>
</g>
<!-- vad_fffffadfcc0314e0 -->
<g id="node29" class="node">
<title>vad_fffffadfcc0314e0</title>
<polygon fill="#c0c0c0" stroke="#0000ff" points="1348.3927,-79.1 1348.3927,-120.7 1480.2497,-120.7 1480.2497,-79.1 1348.3927,-79.1"/>
<text text-anchor="middle" x="1414.3212" y="-104.1" font-family="Times,serif" font-size="14.00" fill="#000000">Vad </text>
<text text-anchor="middle" x="1414.3212" y="-87.3" font-family="Times,serif" font-size="14.00" fill="#000000">78d40000 - 78eb1fff</text>
</g>
<!-- vad_fffffadfccc24a50&#45;&gt;vad_fffffadfcc0314e0 -->
<g id="edge28" class="edge">
<title>vad_fffffadfccc24a50-&gt;vad_fffffadfcc0314e0</title>
<path fill="none" stroke="#000000" d="M1304.8593,-157.643C1323.6251,-147.7437 1346.2185,-135.8253 1365.9935,-125.3937"/>
<polygon fill="#000000" stroke="#000000" points="1367.6453,-128.4795 1374.8571,-120.718 1364.3793,-122.2881 1367.6453,-128.4795"/>
</g>
<!-- vad_fffffadfcc03c350 -->
<g id="node27" class="node">
<title>vad_fffffadfcc03c350</title>
<polygon fill="#ffffff" stroke="#0000ff" points="1126.5624,-.5 1126.5624,-42.1 1256.08,-42.1 1256.08,-.5 1126.5624,-.5"/>
<text text-anchor="middle" x="1191.3212" y="-25.5" font-family="Times,serif" font-size="14.00" fill="#000000">VadS</text>
<text text-anchor="middle" x="1191.3212" y="-8.7" font-family="Times,serif" font-size="14.00" fill="#000000">01b30000 - 01c2ffff</text>
</g>
<!-- vad_fffffadfcd284bb0&#45;&gt;vad_fffffadfcc03c350 -->
<g id="edge26" class="edge">
<title>vad_fffffadfcd284bb0-&gt;vad_fffffadfcc03c350</title>
<path fill="none" stroke="#000000" d="M1245.4906,-78.8366C1237.0452,-69.8663 1227.0665,-59.2673 1217.9896,-49.6262"/>
<polygon fill="#000000" stroke="#000000" points="1220.3531,-47.0307 1210.95,-42.149 1215.2565,-51.8291 1220.3531,-47.0307"/>
</g>
<!-- vad_fffffadfccf21c90 -->
<g id="node28" class="node">
<title>vad_fffffadfccf21c90</title>
<polygon fill="#ffffff" stroke="#0000ff" points="1274.5624,-.5 1274.5624,-42.1 1404.08,-42.1 1404.08,-.5 1274.5624,-.5"/>
<text text-anchor="middle" x="1339.3212" y="-25.5" font-family="Times,serif" font-size="14.00" fill="#000000">VadS</text>
<text text-anchor="middle" x="1339.3212" y="-8.7" font-family="Times,serif" font-size="14.00" fill="#000000">01c90000 - 01d8ffff</text>
</g>
<!-- vad_fffffadfcd284bb0&#45;&gt;vad_fffffadfccf21c90 -->
<g id="edge27" class="edge">
<title>vad_fffffadfcd284bb0-&gt;vad_fffffadfccf21c90</title>
<path fill="none" stroke="#000000" d="M1285.1518,-78.8366C1293.5972,-69.8663 1303.5759,-59.2673 1312.6528,-49.6262"/>
<polygon fill="#000000" stroke="#000000" points="1315.3859,-51.8291 1319.6924,-42.149 1310.2893,-47.0307 1315.3859,-51.8291"/>
</g>
<!-- vad_fffffadfcdcc97a0 -->
<g id="node31" class="node">
<title>vad_fffffadfcdcc97a0</title>
<polygon fill="#ffffff" stroke="#0000ff" points="1431.6339,-314.9 1431.6339,-356.5 1551.0085,-356.5 1551.0085,-314.9 1431.6339,-314.9"/>
<text text-anchor="middle" x="1491.3212" y="-339.9" font-family="Times,serif" font-size="14.00" fill="#000000">Vadl</text>
<text text-anchor="middle" x="1491.3212" y="-323.1" font-family="Times,serif" font-size="14.00" fill="#000000">7ffe0000 - 7ffeffff</text>
</g>
<!-- vad_fffffadfcc46a810&#45;&gt;vad_fffffadfcdcc97a0 -->
<g id="edge30" class="edge">
<title>vad_fffffadfcc46a810-&gt;vad_fffffadfcdcc97a0</title>
<path fill="none" stroke="#000000" d="M1491.3212,-393.2366C1491.3212,-385.0657 1491.3212,-375.5433 1491.3212,-366.6245"/>
<polygon fill="#000000" stroke="#000000" points="1494.8213,-366.5489 1491.3212,-356.549 1487.8213,-366.549 1494.8213,-366.5489"/>
</g>
<!-- vad_fffffadfce202f50 -->
<g id="node37" class="node">
<title>vad_fffffadfce202f50</title>
<polygon fill="#ffffff" stroke="#0000ff" points="1887.697,-314.9 1887.697,-356.5 2038.9454,-356.5 2038.9454,-314.9 1887.697,-314.9"/>
<text text-anchor="middle" x="1963.3212" y="-339.9" font-family="Times,serif" font-size="14.00" fill="#000000">Vad </text>
<text text-anchor="middle" x="1963.3212" y="-323.1" font-family="Times,serif" font-size="14.00" fill="#000000">7fffffb0000 - 7fffffd3fff</text>
</g>
<!-- vad_fffffadfcc46a810&#45;&gt;vad_fffffadfce202f50 -->
<g id="edge36" class="edge">
<title>vad_fffffadfcc46a810-&gt;vad_fffffadfce202f50</title>
<path fill="none" stroke="#000000" d="M1574.0774,-400.519C1659.2747,-386.3315 1791.4152,-364.3267 1877.6608,-349.9646"/>
<polygon fill="#000000" stroke="#000000" points="1878.3944,-353.3908 1887.6836,-348.2956 1877.2445,-346.4858 1878.3944,-353.3908"/>
</g>
<!-- vad_fffffadfcc039600 -->
<g id="node32" class="node">
<title>vad_fffffadfcc039600</title>
<polygon fill="#ffffff" stroke="#0000ff" points="1350.0715,-236.3 1350.0715,-277.9 1472.5709,-277.9 1472.5709,-236.3 1350.0715,-236.3"/>
<text text-anchor="middle" x="1411.3212" y="-261.3" font-family="Times,serif" font-size="14.00" fill="#000000">VadS</text>
<text text-anchor="middle" x="1411.3212" y="-244.5" font-family="Times,serif" font-size="14.00" fill="#000000">7f0e0000 - 7ffdffff</text>
</g>
<!-- vad_fffffadfcdcc97a0&#45;&gt;vad_fffffadfcc039600 -->
<g id="edge31" class="edge">
<title>vad_fffffadfcdcc97a0-&gt;vad_fffffadfcc039600</title>
<path fill="none" stroke="#000000" d="M1469.8827,-314.6366C1460.6622,-305.5775 1449.751,-294.8573 1439.8607,-285.1401"/>
<polygon fill="#000000" stroke="#000000" points="1442.1277,-282.4607 1432.5415,-277.949 1437.2218,-287.454 1442.1277,-282.4607"/>
</g>
<!-- vad_fffffadfcc10eda0 -->
<g id="node34" class="node">
<title>vad_fffffadfcc10eda0</title>
<polygon fill="#c0c0c0" stroke="#0000ff" points="1490.0715,-236.3 1490.0715,-277.9 1654.5709,-277.9 1654.5709,-236.3 1490.0715,-236.3"/>
<text text-anchor="middle" x="1572.3212" y="-261.3" font-family="Times,serif" font-size="14.00" fill="#000000">Vad </text>
<text text-anchor="middle" x="1572.3212" y="-244.5" font-family="Times,serif" font-size="14.00" fill="#000000">7ff77060000 - 7ff770defff</text>
</g>
<!-- vad_fffffadfcdcc97a0&#45;&gt;vad_fffffadfcc10eda0 -->
<g id="edge33" class="edge">
<title>vad_fffffadfcdcc97a0-&gt;vad_fffffadfcc10eda0</title>
<path fill="none" stroke="#000000" d="M1513.0277,-314.6366C1522.3634,-305.5775 1533.411,-294.8573 1543.4249,-285.1401"/>
<polygon fill="#000000" stroke="#000000" points="1546.0964,-287.4247 1550.8356,-277.949 1541.2216,-282.4011 1546.0964,-287.4247"/>
</g>
<!-- vad_fffffadfcdc9f2d0 -->
<g id="node33" class="node">
<title>vad_fffffadfcdc9f2d0</title>
<polygon fill="#ffffff" stroke="#0000ff" points="1349.2945,-157.7 1349.2945,-199.3 1473.3479,-199.3 1473.3479,-157.7 1349.2945,-157.7"/>
<text text-anchor="middle" x="1411.3212" y="-182.7" font-family="Times,serif" font-size="14.00" fill="#000000">Vad </text>
<text text-anchor="middle" x="1411.3212" y="-165.9" font-family="Times,serif" font-size="14.00" fill="#000000">7efe0000 - 7f0dffff</text>
</g>
<!-- vad_fffffadfcc039600&#45;&gt;vad_fffffadfcdc9f2d0 -->
<g id="edge32" class="edge">
<title>vad_fffffadfcc039600-&gt;vad_fffffadfcdc9f2d0</title>
<path fill="none" stroke="#000000" d="M1411.3212,-236.0366C1411.3212,-227.8657 1411.3212,-218.3433 1411.3212,-209.4245"/>
<polygon fill="#000000" stroke="#000000" points="1414.8213,-209.3489 1411.3212,-199.349 1407.8213,-209.349 1414.8213,-209.3489"/>
</g>
<!-- vad_fffffadfcc10eb50 -->
<g id="node35" class="node">
<title>vad_fffffadfcc10eb50</title>
<polygon fill="#c0c0c0" stroke="#0000ff" points="1491,-157.7 1491,-199.3 1637.6424,-199.3 1637.6424,-157.7 1491,-157.7"/>
<text text-anchor="middle" x="1564.3212" y="-182.7" font-family="Times,serif" font-size="14.00" fill="#000000">Vadl</text>
<text text-anchor="middle" x="1564.3212" y="-165.9" font-family="Times,serif" font-size="14.00" fill="#000000">100000000 - 100019fff</text>
</g>
<!-- vad_fffffadfcc10eda0&#45;&gt;vad_fffffadfcc10eb50 -->
<g id="edge34" class="edge">
<title>vad_fffffadfcc10eda0-&gt;vad_fffffadfcc10eb50</title>
<path fill="none" stroke="#000000" d="M1570.1773,-236.0366C1569.3457,-227.8657 1568.3765,-218.3433 1567.4687,-209.4245"/>
<polygon fill="#000000" stroke="#000000" points="1570.9379,-208.9431 1566.4432,-199.349 1563.9739,-209.652 1570.9379,-208.9431"/>
</g>
<!-- vad_fffffadfcc1cdd50 -->
<g id="node36" class="node">
<title>vad_fffffadfcc1cdd50</title>
<polygon fill="#c0c0c0" stroke="#0000ff" points="1655.6788,-157.7 1655.6788,-199.3 1820.9636,-199.3 1820.9636,-157.7 1655.6788,-157.7"/>
<text text-anchor="middle" x="1738.3212" y="-182.7" font-family="Times,serif" font-size="14.00" fill="#000000">Vad </text>
<text text-anchor="middle" x="1738.3212" y="-165.9" font-family="Times,serif" font-size="14.00" fill="#000000">7ff78d50000 - 7ff78d90fff</text>
</g>
<!-- vad_fffffadfcc10eda0&#45;&gt;vad_fffffadfcc1cdd50 -->
<g id="edge35" class="edge">
<title>vad_fffffadfcc10eda0-&gt;vad_fffffadfcc1cdd50</title>
<path fill="none" stroke="#000000" d="M1616.3703,-236.243C1637.4656,-226.2545 1662.9023,-214.2104 1685.0743,-203.7121"/>
<polygon fill="#000000" stroke="#000000" points="1686.8143,-206.7608 1694.3545,-199.318 1683.8186,-200.4342 1686.8143,-206.7608"/>
</g>
<!-- vad_fffffadfcc036d40 -->
<g id="node38" class="node">
<title>vad_fffffadfcc036d40</title>
<polygon fill="#c0c0c0" stroke="#0000ff" points="1883.8036,-236.3 1883.8036,-277.9 2042.8388,-277.9 2042.8388,-236.3 1883.8036,-236.3"/>
<text text-anchor="middle" x="1963.3212" y="-261.3" font-family="Times,serif" font-size="14.00" fill="#000000">Vad </text>
<text text-anchor="middle" x="1963.3212" y="-244.5" font-family="Times,serif" font-size="14.00" fill="#000000">7ff7fc00000 - 7ff7fc85fff</text>
</g>
<!-- vad_fffffadfce202f50&#45;&gt;vad_fffffadfcc036d40 -->
<g id="edge37" class="edge">
<title>vad_fffffadfce202f50-&gt;vad_fffffadfcc036d40</title>
<path fill="none" stroke="#000000" d="M1963.3212,-314.6366C1963.3212,-306.4657 1963.3212,-296.9433 1963.3212,-288.0245"/>
<polygon fill="#000000" stroke="#000000" points="1966.8213,-287.9489 1963.3212,-277.949 1959.8213,-287.949 1966.8213,-287.9489"/>
</g>
<!-- vad_fffffadfccee5550 -->
<g id="node45" class="node">
<title>vad_fffffadfccee5550</title>
<polygon fill="#ffffff" stroke="#0000ff" points="2149.4824,-236.3 2149.4824,-277.9 2299.16,-277.9 2299.16,-236.3 2149.4824,-236.3"/>
<text text-anchor="middle" x="2224.3212" y="-261.3" font-family="Times,serif" font-size="14.00" fill="#000000">Vadl</text>
<text text-anchor="middle" x="2224.3212" y="-244.5" font-family="Times,serif" font-size="14.00" fill="#000000">7fffffda000 - 7fffffdafff</text>
</g>
<!-- vad_fffffadfce202f50&#45;&gt;vad_fffffadfccee5550 -->
<g id="edge44" class="edge">
<title>vad_fffffadfce202f50-&gt;vad_fffffadfccee5550</title>
<path fill="none" stroke="#000000" d="M2032.5792,-314.843C2067.2278,-304.4086 2109.3254,-291.7309 2145.2387,-280.9156"/>
<polygon fill="#000000" stroke="#000000" points="2146.6269,-284.1529 2155.1928,-277.918 2144.6083,-277.4503 2146.6269,-284.1529"/>
</g>
<!-- vad_fffffadfce210f40 -->
<g id="node39" class="node">
<title>vad_fffffadfce210f40</title>
<polygon fill="#c0c0c0" stroke="#0000ff" points="1839.0182,-157.7 1839.0182,-199.3 1999.6242,-199.3 1999.6242,-157.7 1839.0182,-157.7"/>
<text text-anchor="middle" x="1919.3212" y="-182.7" font-family="Times,serif" font-size="14.00" fill="#000000">Vad </text>
<text text-anchor="middle" x="1919.3212" y="-165.9" font-family="Times,serif" font-size="14.00" fill="#000000">7ff7f010000 - 7ff7f196fff</text>
</g>
<!-- vad_fffffadfcc036d40&#45;&gt;vad_fffffadfce210f40 -->
<g id="edge38" class="edge">
<title>vad_fffffadfcc036d40-&gt;vad_fffffadfce210f40</title>
<path fill="none" stroke="#000000" d="M1951.53,-236.0366C1946.7571,-227.5104 1941.1604,-217.5127 1935.9834,-208.2648"/>
<polygon fill="#000000" stroke="#000000" points="1938.9311,-206.3651 1930.9924,-199.349 1932.8231,-209.7844 1938.9311,-206.3651"/>
</g>
<!-- vad_fffffadfcc036da0 -->
<g id="node42" class="node">
<title>vad_fffffadfcc036da0</title>
<polygon fill="#c0c0c0" stroke="#0000ff" points="2017.4109,-157.7 2017.4109,-199.3 2177.2315,-199.3 2177.2315,-157.7 2017.4109,-157.7"/>
<text text-anchor="middle" x="2097.3212" y="-182.7" font-family="Times,serif" font-size="14.00" fill="#000000">Vad </text>
<text text-anchor="middle" x="2097.3212" y="-165.9" font-family="Times,serif" font-size="14.00" fill="#000000">7ff7fd30000 - 7ff7fed8fff</text>
</g>
<!-- vad_fffffadfcc036d40&#45;&gt;vad_fffffadfcc036da0 -->
<g id="edge41" class="edge">
<title>vad_fffffadfcc036d40-&gt;vad_fffffadfcc036da0</title>
<path fill="none" stroke="#000000" d="M1998.8789,-236.243C2015.3855,-226.5608 2035.185,-214.9471 2052.6851,-204.6821"/>
<polygon fill="#000000" stroke="#000000" points="2054.7425,-207.533 2061.5973,-199.4545 2051.2008,-201.495 2054.7425,-207.533"/>
</g>
<!-- vad_fffffadfcc364eb0 -->
<g id="node40" class="node">
<title>vad_fffffadfcc364eb0</title>
<polygon fill="#c0c0c0" stroke="#0000ff" points="1659.2496,-79.1 1659.2496,-120.7 1821.3928,-120.7 1821.3928,-79.1 1659.2496,-79.1"/>
<text text-anchor="middle" x="1740.3212" y="-104.1" font-family="Times,serif" font-size="14.00" fill="#000000">Vad </text>
<text text-anchor="middle" x="1740.3212" y="-87.3" font-family="Times,serif" font-size="14.00" fill="#000000">7ff7ed90000 - 7ff7ee2afff</text>
</g>
<!-- vad_fffffadfce210f40&#45;&gt;vad_fffffadfcc364eb0 -->
<g id="edge39" class="edge">
<title>vad_fffffadfce210f40-&gt;vad_fffffadfcc364eb0</title>
<path fill="none" stroke="#000000" d="M1871.8224,-157.643C1848.872,-147.5653 1821.1562,-135.3952 1797.0985,-124.8313"/>
<polygon fill="#000000" stroke="#000000" points="1798.2945,-121.5339 1787.7311,-120.718 1795.48,-127.9432 1798.2945,-121.5339"/>
</g>
<!-- vad_fffffadfcc1e49e0 -->
<g id="node41" class="node">
<title>vad_fffffadfcc1e49e0</title>
<polygon fill="#c0c0c0" stroke="#0000ff" points="1839.8036,-79.1 1839.8036,-120.7 1998.8388,-120.7 1998.8388,-79.1 1839.8036,-79.1"/>
<text text-anchor="middle" x="1919.3212" y="-104.1" font-family="Times,serif" font-size="14.00" fill="#000000">Vad </text>
<text text-anchor="middle" x="1919.3212" y="-87.3" font-family="Times,serif" font-size="14.00" fill="#000000">7ff7f1a0000 - 7ff7fba6fff</text>
</g>
<!-- vad_fffffadfce210f40&#45;&gt;vad_fffffadfcc1e49e0 -->
<g id="edge40" class="edge">
<title>vad_fffffadfce210f40-&gt;vad_fffffadfcc1e49e0</title>
<path fill="none" stroke="#000000" d="M1919.3212,-157.4366C1919.3212,-149.2657 1919.3212,-139.7433 1919.3212,-130.8245"/>
<polygon fill="#000000" stroke="#000000" points="1922.8213,-130.7489 1919.3212,-120.749 1915.8213,-130.749 1922.8213,-130.7489"/>
</g>
<!-- vad_fffffadfcbfa66f0 -->
<g id="node43" class="node">
<title>vad_fffffadfcbfa66f0</title>
<polygon fill="#c0c0c0" stroke="#0000ff" points="2016.4109,-79.1 2016.4109,-120.7 2176.2315,-120.7 2176.2315,-79.1 2016.4109,-79.1"/>
<text text-anchor="middle" x="2096.3212" y="-104.1" font-family="Times,serif" font-size="14.00" fill="#000000">Vad </text>
<text text-anchor="middle" x="2096.3212" y="-87.3" font-family="Times,serif" font-size="14.00" fill="#000000">7ff7fc90000 - 7ff7fd27fff</text>
</g>
<!-- vad_fffffadfcc036da0&#45;&gt;vad_fffffadfcbfa66f0 -->
<g id="edge42" class="edge">
<title>vad_fffffadfcc036da0-&gt;vad_fffffadfcbfa66f0</title>
<path fill="none" stroke="#000000" d="M2097.0532,-157.4366C2096.9493,-149.2657 2096.8281,-139.7433 2096.7146,-130.8245"/>
<polygon fill="#000000" stroke="#000000" points="2100.2135,-130.7036 2096.5865,-120.749 2093.2141,-130.7927 2100.2135,-130.7036"/>
</g>
<!-- vad_fffffadfccc161d0 -->
<g id="node44" class="node">
<title>vad_fffffadfccc161d0</title>
<polygon fill="#c0c0c0" stroke="#0000ff" points="2194.366,-79.1 2194.366,-120.7 2350.2764,-120.7 2350.2764,-79.1 2194.366,-79.1"/>
<text text-anchor="middle" x="2272.3212" y="-104.1" font-family="Times,serif" font-size="14.00" fill="#000000">Vad </text>
<text text-anchor="middle" x="2272.3212" y="-87.3" font-family="Times,serif" font-size="14.00" fill="#000000">7ff7fee0000 - 7ff7ffe4fff</text>
</g>
<!-- vad_fffffadfcc036da0&#45;&gt;vad_fffffadfccc161d0 -->
<g id="edge43" class="edge">
<title>vad_fffffadfcc036da0-&gt;vad_fffffadfccc161d0</title>
<path fill="none" stroke="#000000" d="M2143.7585,-157.643C2166.1961,-147.5653 2193.2926,-135.3952 2216.8127,-124.8313"/>
<polygon fill="#000000" stroke="#000000" points="2218.2826,-128.0079 2225.9708,-120.718 2215.4146,-121.6224 2218.2826,-128.0079"/>
</g>
<!-- vad_fffffadfcc05a490 -->
<g id="node46" class="node">
<title>vad_fffffadfcc05a490</title>
<polygon fill="#ffffff" stroke="#0000ff" points="2195.2594,-157.7 2195.2594,-199.3 2343.383,-199.3 2343.383,-157.7 2195.2594,-157.7"/>
<text text-anchor="middle" x="2269.3212" y="-182.7" font-family="Times,serif" font-size="14.00" fill="#000000">Vadl</text>
<text text-anchor="middle" x="2269.3212" y="-165.9" font-family="Times,serif" font-size="14.00" fill="#000000">7fffffde000 - 7fffffdffff</text>
</g>
<!-- vad_fffffadfccee5550&#45;&gt;vad_fffffadfcc05a490 -->
<g id="edge45" class="edge">
<title>vad_fffffadfccee5550-&gt;vad_fffffadfcc05a490</title>
<path fill="none" stroke="#000000" d="M2236.3804,-236.0366C2241.2618,-227.5104 2246.9857,-217.5127 2252.2803,-208.2648"/>
<polygon fill="#000000" stroke="#000000" points="2255.4536,-209.7663 2257.3848,-199.349 2249.3788,-206.2883 2255.4536,-209.7663"/>
</g>
</g>
</svg>